<?xml version="1.0" encoding="UTF-8"?>
<svg width="207px" height="33px" viewBox="0 0 207 33" version="1.1" xmlns="http://www.w3.org/2000/svg" xmlns:xlink="http://www.w3.org/1999/xlink">
    <!-- Generator: Sketch 60.1 (88133) - https://sketch.com -->
    <title>Group 5</title>
    <desc>Created with Sketch.</desc>
    <g id="Page-1" stroke="none" stroke-width="1" fill="none" fill-rule="evenodd">
        <g id="Group-5" fill-rule="nonzero">
            <path d="M44.84,14 L44.84,4.88 L48.072,4.88 L48.072,2.672 L39.112,2.672 L39.112,4.88 L42.344,4.88 L42.344,14 L44.84,14 Z M55.0045715,14.288 C55.8899049,14.288 56.7059049,14.1493333 57.4525715,13.872 C58.1992382,13.5946667 58.8445715,13.1973333 59.3885715,12.68 C59.9325715,12.1626667 60.3565715,11.536 60.6605715,10.8 C60.9645715,10.064 61.1165715,9.24266667 61.1165715,8.336 C61.1165715,7.42933333 60.9645715,6.608 60.6605715,5.872 C60.3565715,5.136 59.9325715,4.50933333 59.3885715,3.992 C58.8445715,3.47466667 58.1992382,3.07733333 57.4525715,2.8 C56.7059049,2.52266667 55.8899049,2.384 55.0045715,2.384 C54.1192382,2.384 53.3032382,2.52266667 52.5565715,2.8 C51.8099049,3.07733333 51.1645715,3.47466667 50.6205715,3.992 C50.0765715,4.50933333 49.6525715,5.136 49.3485715,5.872 C49.0445715,6.608 48.8925715,7.42933333 48.8925715,8.336 C48.8925715,9.24266667 49.0445715,10.064 49.3485715,10.8 C49.6525715,11.536 50.0765715,12.1626667 50.6205715,12.68 C51.1645715,13.1973333 51.8099049,13.5946667 52.5565715,13.872 C53.3032382,14.1493333 54.1192382,14.288 55.0045715,14.288 Z M55.0045715,11.984 C54.4712382,11.984 53.9885715,11.8933333 53.5565715,11.712 C53.1245715,11.5306667 52.7539049,11.2773333 52.4445715,10.952 C52.1352382,10.6266667 51.8979049,10.2426667 51.7325715,9.8 C51.5672382,9.35733333 51.4845715,8.86933333 51.4845715,8.336 C51.4845715,7.81333333 51.5672382,7.328 51.7325715,6.88 C51.8979049,6.432 52.1352382,6.04533333 52.4445715,5.72 C52.7539049,5.39466667 53.1245715,5.14133333 53.5565715,4.96 C53.9885715,4.77866667 54.4712382,4.688 55.0045715,4.688 C55.5379049,4.688 56.0205715,4.77866667 56.4525715,4.96 C56.8845715,5.14133333 57.2552382,5.39466667 57.5645715,5.72 C57.8739049,6.04533333 58.1112382,6.432 58.2765715,6.88 C58.4419049,7.328 58.5245715,7.81333333 58.5245715,8.336 C58.5245715,8.86933333 58.4419049,9.35733333 58.2765715,9.8 C58.1112382,10.2426667 57.8739049,10.6266667 57.5645715,10.952 C57.2552382,11.2773333 56.8845715,11.5306667 56.4525715,11.712 C56.0205715,11.8933333 55.5379049,11.984 55.0045715,11.984 Z M65.473143,14 L65.473143,9.584 L67.297143,9.584 C67.8944764,9.584 68.449143,9.528 68.961143,9.416 C69.473143,9.304 69.9158097,9.11466667 70.289143,8.848 C70.6624764,8.58133333 70.9558097,8.224 71.169143,7.776 C71.3824764,7.328 71.489143,6.77333333 71.489143,6.112 C71.489143,5.44 71.3744764,4.88266667 71.145143,4.44 C70.9158097,3.99733333 70.6064764,3.64533333 70.217143,3.384 C69.8278097,3.12266667 69.3718097,2.93866667 68.849143,2.832 C68.3264764,2.72533333 67.7718097,2.672 67.185143,2.672 L67.185143,2.672 L62.977143,2.672 L62.977143,14 L65.473143,14 Z M67.137143,7.472 L65.473143,7.472 L65.473143,4.784 L66.753143,4.784 C66.9878097,4.784 67.233143,4.79733333 67.489143,4.824 C67.745143,4.85066667 67.977143,4.912 68.185143,5.008 C68.393143,5.104 68.5638097,5.24 68.697143,5.416 C68.8304764,5.592 68.897143,5.824 68.897143,6.112 C68.897143,6.37866667 68.8464764,6.6 68.745143,6.776 C68.6438097,6.952 68.5104764,7.09066667 68.345143,7.192 C68.1798097,7.29333333 67.993143,7.36533333 67.785143,7.408 C67.577143,7.45066667 67.361143,7.472 67.137143,7.472 L67.137143,7.472 Z M83.8822861,14 L83.8822861,2.672 L81.6422861,2.672 L77.9462861,5.792 L79.3062861,7.36 L81.5782861,5.36 L81.5782861,14 L83.8822861,14 Z M91.3428576,14.192 C92.1855243,14.192 92.8788576,14.0133333 93.4228576,13.656 C93.9668576,13.2986667 94.3961909,12.8373333 94.7108576,12.272 C95.0255243,11.7066667 95.2441909,11.0773333 95.3668576,10.384 C95.4895243,9.69066667 95.5508576,9.008 95.5508576,8.336 C95.5508576,7.664 95.4895243,6.98133333 95.3668576,6.288 C95.2441909,5.59466667 95.0255243,4.96533333 94.7108576,4.4 C94.3961909,3.83466667 93.9668576,3.37333333 93.4228576,3.016 C92.8788576,2.65866667 92.1855243,2.48 91.3428576,2.48 C90.5001909,2.48 89.8068576,2.65866667 89.2628576,3.016 C88.7188576,3.37333333 88.2895243,3.83466667 87.9748576,4.4 C87.6601909,4.96533333 87.4415243,5.59466667 87.3188576,6.288 C87.1961909,6.98133333 87.1348576,7.664 87.1348576,8.336 C87.1348576,9.008 87.1961909,9.69066667 87.3188576,10.384 C87.4415243,11.0773333 87.6601909,11.7066667 87.9748576,12.272 C88.2895243,12.8373333 88.7188576,13.2986667 89.2628576,13.656 C89.8068576,14.0133333 90.5001909,14.192 91.3428576,14.192 Z M91.3428576,11.984 C90.9055243,11.984 90.5668576,11.8506667 90.3268576,11.584 C90.0868576,11.3173333 89.9081909,10.992 89.7908576,10.608 C89.6735243,10.224 89.6015243,9.824 89.5748576,9.408 C89.5481909,8.992 89.5348576,8.63466667 89.5348576,8.336 C89.5348576,8.03733333 89.5481909,7.68 89.5748576,7.264 C89.6015243,6.848 89.6735243,6.448 89.7908576,6.064 C89.9081909,5.68 90.0868576,5.35466667 90.3268576,5.088 C90.5668576,4.82133333 90.9055243,4.688 91.3428576,4.688 C91.7695243,4.688 92.1055243,4.82133333 92.3508576,5.088 C92.5961909,5.35466667 92.7775243,5.68 92.8948576,6.064 C93.0121909,6.448 93.0841909,6.848 93.1108576,7.264 C93.1375243,7.68 93.1508576,8.03733333 93.1508576,8.336 C93.1508576,8.63466667 93.1375243,8.992 93.1108576,9.408 C93.0841909,9.824 93.0121909,10.224 92.8948576,10.608 C92.7775243,10.992 92.5961909,11.3173333 92.3508576,11.584 C92.1055243,11.8506667 91.7695243,11.984 91.3428576,11.984 Z M106.936001,14 C107.437334,14 107.941334,13.9466667 108.448001,13.84 C108.954667,13.7333333 109.410667,13.5573333 109.816001,13.312 C110.221334,13.0666667 110.552001,12.744 110.808001,12.344 C111.064001,11.944 111.192001,11.4453333 111.192001,10.848 C111.192001,10.4853333 111.133334,10.144 111.016001,9.824 C110.898667,9.504 110.730667,9.224 110.512001,8.984 C110.293334,8.744 110.032001,8.54666667 109.728001,8.392 C109.424001,8.23733333 109.085334,8.13333333 108.712001,8.08 L108.712001,8.08 L108.712001,8.048 C109.298667,7.86666667 109.770667,7.56533333 110.128001,7.144 C110.485334,6.72266667 110.664001,6.192 110.664001,5.552 C110.664001,4.93333333 110.541334,4.43733333 110.296001,4.064 C110.050667,3.69066667 109.730667,3.4 109.336001,3.192 C108.941334,2.984 108.496001,2.84533333 108.000001,2.776 C107.504001,2.70666667 107.010667,2.672 106.520001,2.672 L106.520001,2.672 L102.296001,2.672 L102.296001,14 L106.936001,14 Z M106.600001,7.2 L104.792001,7.2 L104.792001,4.784 L106.488001,4.784 C106.680001,4.784 106.877334,4.80266667 107.080001,4.84 C107.282667,4.87733333 107.464001,4.93866667 107.624001,5.024 C107.784001,5.10933333 107.914667,5.22933333 108.016001,5.384 C108.117334,5.53866667 108.168001,5.73333333 108.168001,5.968 C108.168001,6.192 108.122667,6.384 108.032001,6.544 C107.941334,6.704 107.821334,6.832 107.672001,6.928 C107.522667,7.024 107.354667,7.09333333 107.168001,7.136 C106.981334,7.17866667 106.792001,7.2 106.600001,7.2 L106.600001,7.2 Z M107.032001,11.888 L104.792001,11.888 L104.792001,9.312 L106.680001,9.312 C106.882667,9.312 107.101334,9.328 107.336001,9.36 C107.570667,9.392 107.789334,9.45066667 107.992001,9.536 C108.194667,9.62133333 108.362667,9.74666667 108.496001,9.912 C108.629334,10.0773333 108.696001,10.2933333 108.696001,10.56 C108.696001,10.8053333 108.645334,11.0133333 108.544001,11.184 C108.442667,11.3546667 108.312001,11.4933333 108.152001,11.6 C107.992001,11.7066667 107.813334,11.7813333 107.616001,11.824 C107.418667,11.8666667 107.224001,11.888 107.032001,11.888 L107.032001,11.888 Z M120.908572,14 L120.908572,11.696 L115.420572,11.696 L115.420572,9.392 L120.332572,9.392 L120.332572,7.088 L115.420572,7.088 L115.420572,4.976 L120.620572,4.976 L120.620572,2.672 L112.924572,2.672 L112.924572,14 L120.908572,14 Z M126.033144,14.288 C126.61981,14.288 127.177144,14.2133333 127.705144,14.064 C128.233144,13.9146667 128.697144,13.6853333 129.097144,13.376 C129.497144,13.0666667 129.814477,12.6773333 130.049144,12.208 C130.28381,11.7386667 130.401144,11.1893333 130.401144,10.56 C130.401144,9.89866667 130.273144,9.37066667 130.017144,8.976 C129.761144,8.58133333 129.438477,8.26666667 129.049144,8.032 C128.65981,7.79733333 128.241144,7.616 127.793144,7.488 C127.345144,7.36 126.926477,7.232 126.537144,7.104 C126.14781,6.976 125.825144,6.82133333 125.569144,6.64 C125.313144,6.45866667 125.185144,6.19733333 125.185144,5.856 C125.185144,5.64266667 125.238477,5.46133333 125.345144,5.312 C125.45181,5.16266667 125.590477,5.04266667 125.761144,4.952 C125.93181,4.86133333 126.113144,4.79466667 126.305144,4.752 C126.497144,4.70933333 126.68381,4.688 126.865144,4.688 C127.174477,4.688 127.502477,4.74933333 127.849144,4.872 C128.19581,4.99466667 128.470477,5.184 128.673144,5.44 L128.673144,5.44 L130.385144,3.568 C129.905144,3.14133333 129.366477,2.83733333 128.769144,2.656 C128.17181,2.47466667 127.553144,2.384 126.913144,2.384 C126.358477,2.384 125.81981,2.46133333 125.297144,2.616 C124.774477,2.77066667 124.313144,3.00266667 123.913144,3.312 C123.513144,3.62133333 123.193144,4.00533333 122.953144,4.464 C122.713144,4.92266667 122.593144,5.456 122.593144,6.064 C122.593144,6.69333333 122.72381,7.2 122.985144,7.584 C123.246477,7.968 123.574477,8.27733333 123.969144,8.512 C124.36381,8.74666667 124.790477,8.93333333 125.249144,9.072 C125.70781,9.21066667 126.134477,9.34933333 126.529144,9.488 C126.92381,9.62666667 127.25181,9.79466667 127.513144,9.992 C127.774477,10.1893333 127.905144,10.4586667 127.905144,10.8 C127.905144,11.0026667 127.854477,11.1786667 127.753144,11.328 C127.65181,11.4773333 127.518477,11.6 127.353144,11.696 C127.18781,11.792 127.001144,11.864 126.793144,11.912 C126.585144,11.96 126.37981,11.984 126.177144,11.984 C125.761144,11.984 125.358477,11.8906667 124.969144,11.704 C124.57981,11.5173333 124.257144,11.2533333 124.001144,10.912 L124.001144,10.912 L122.225144,12.864 C122.769144,13.3653333 123.35581,13.728 123.985144,13.952 C124.614477,14.176 125.297144,14.288 126.033144,14.288 Z M137.109715,14 L137.109715,4.88 L140.341715,4.88 L140.341715,2.672 L131.381715,2.672 L131.381715,4.88 L134.613715,4.88 L134.613715,14 L137.109715,14 Z M149.630858,14.288 C150.217525,14.288 150.774858,14.2133333 151.302858,14.064 C151.830858,13.9146667 152.294858,13.6853333 152.694858,13.376 C153.094858,13.0666667 153.412192,12.6773333 153.646858,12.208 C153.881525,11.7386667 153.998858,11.1893333 153.998858,10.56 C153.998858,9.89866667 153.870858,9.37066667 153.614858,8.976 C153.358858,8.58133333 153.036192,8.26666667 152.646858,8.032 C152.257525,7.79733333 151.838858,7.616 151.390858,7.488 C150.942858,7.36 150.524192,7.232 150.134858,7.104 C149.745525,6.976 149.422858,6.82133333 149.166858,6.64 C148.910858,6.45866667 148.782858,6.19733333 148.782858,5.856 C148.782858,5.64266667 148.836192,5.46133333 148.942858,5.312 C149.049525,5.16266667 149.188192,5.04266667 149.358858,4.952 C149.529525,4.86133333 149.710858,4.79466667 149.902858,4.752 C150.094858,4.70933333 150.281525,4.688 150.462858,4.688 C150.772192,4.688 151.100192,4.74933333 151.446858,4.872 C151.793525,4.99466667 152.068192,5.184 152.270858,5.44 L152.270858,5.44 L153.982858,3.568 C153.502858,3.14133333 152.964192,2.83733333 152.366858,2.656 C151.769525,2.47466667 151.150858,2.384 150.510858,2.384 C149.956192,2.384 149.417525,2.46133333 148.894858,2.616 C148.372192,2.77066667 147.910858,3.00266667 147.510858,3.312 C147.110858,3.62133333 146.790858,4.00533333 146.550858,4.464 C146.310858,4.92266667 146.190858,5.456 146.190858,6.064 C146.190858,6.69333333 146.321525,7.2 146.582858,7.584 C146.844192,7.968 147.172192,8.27733333 147.566858,8.512 C147.961525,8.74666667 148.388192,8.93333333 148.846858,9.072 C149.305525,9.21066667 149.732192,9.34933333 150.126858,9.488 C150.521525,9.62666667 150.849525,9.79466667 151.110858,9.992 C151.372192,10.1893333 151.502858,10.4586667 151.502858,10.8 C151.502858,11.0026667 151.452192,11.1786667 151.350858,11.328 C151.249525,11.4773333 151.116192,11.6 150.950858,11.696 C150.785525,11.792 150.598858,11.864 150.390858,11.912 C150.182858,11.96 149.977525,11.984 149.774858,11.984 C149.358858,11.984 148.956192,11.8906667 148.566858,11.704 C148.177525,11.5173333 147.854858,11.2533333 147.598858,10.912 L147.598858,10.912 L145.822858,12.864 C146.366858,13.3653333 146.953525,13.728 147.582858,13.952 C148.212192,14.176 148.894858,14.288 149.630858,14.288 Z M158.51543,14 L158.51543,9.584 L160.33943,9.584 C160.936763,9.584 161.49143,9.528 162.00343,9.416 C162.51543,9.304 162.958096,9.11466667 163.33143,8.848 C163.704763,8.58133333 163.998096,8.224 164.21143,7.776 C164.424763,7.328 164.53143,6.77333333 164.53143,6.112 C164.53143,5.44 164.416763,4.88266667 164.18743,4.44 C163.958096,3.99733333 163.648763,3.64533333 163.25943,3.384 C162.870096,3.12266667 162.414096,2.93866667 161.89143,2.832 C161.368763,2.72533333 160.814096,2.672 160.22743,2.672 L160.22743,2.672 L156.01943,2.672 L156.01943,14 L158.51543,14 Z M160.17943,7.472 L158.51543,7.472 L158.51543,4.784 L159.79543,4.784 C160.030096,4.784 160.27543,4.79733333 160.53143,4.824 C160.78743,4.85066667 161.01943,4.912 161.22743,5.008 C161.43543,5.104 161.606096,5.24 161.73943,5.416 C161.872763,5.592 161.93943,5.824 161.93943,6.112 C161.93943,6.37866667 161.888763,6.6 161.78743,6.776 C161.686096,6.952 161.552763,7.09066667 161.38743,7.192 C161.222096,7.29333333 161.03543,7.36533333 160.82743,7.408 C160.61943,7.45066667 160.40343,7.472 160.17943,7.472 L160.17943,7.472 Z M171.768001,14.288 C172.653335,14.288 173.469335,14.1493333 174.216001,13.872 C174.962668,13.5946667 175.608001,13.1973333 176.152001,12.68 C176.696001,12.1626667 177.120001,11.536 177.424001,10.8 C177.728001,10.064 177.880001,9.24266667 177.880001,8.336 C177.880001,7.42933333 177.728001,6.608 177.424001,5.872 C177.120001,5.136 176.696001,4.50933333 176.152001,3.992 C175.608001,3.47466667 174.962668,3.07733333 174.216001,2.8 C173.469335,2.52266667 172.653335,2.384 171.768001,2.384 C170.882668,2.384 170.066668,2.52266667 169.320001,2.8 C168.573335,3.07733333 167.928001,3.47466667 167.384001,3.992 C166.840001,4.50933333 166.416001,5.136 166.112001,5.872 C165.808001,6.608 165.656001,7.42933333 165.656001,8.336 C165.656001,9.24266667 165.808001,10.064 166.112001,10.8 C166.416001,11.536 166.840001,12.1626667 167.384001,12.68 C167.928001,13.1973333 168.573335,13.5946667 169.320001,13.872 C170.066668,14.1493333 170.882668,14.288 171.768001,14.288 Z M171.768001,11.984 C171.234668,11.984 170.752001,11.8933333 170.320001,11.712 C169.888001,11.5306667 169.517335,11.2773333 169.208001,10.952 C168.898668,10.6266667 168.661335,10.2426667 168.496001,9.8 C168.330668,9.35733333 168.248001,8.86933333 168.248001,8.336 C168.248001,7.81333333 168.330668,7.328 168.496001,6.88 C168.661335,6.432 168.898668,6.04533333 169.208001,5.72 C169.517335,5.39466667 169.888001,5.14133333 170.320001,4.96 C170.752001,4.77866667 171.234668,4.688 171.768001,4.688 C172.301335,4.688 172.784001,4.77866667 173.216001,4.96 C173.648001,5.14133333 174.018668,5.39466667 174.328001,5.72 C174.637335,6.04533333 174.874668,6.432 175.040001,6.88 C175.205335,7.328 175.288001,7.81333333 175.288001,8.336 C175.288001,8.86933333 175.205335,9.35733333 175.040001,9.8 C174.874668,10.2426667 174.637335,10.6266667 174.328001,10.952 C174.018668,11.2773333 173.648001,11.5306667 173.216001,11.712 C172.784001,11.8933333 172.301335,11.984 171.768001,11.984 Z M182.236573,14 L182.236573,9.472 L183.468573,9.472 L185.836573,14 L188.828573,14 L185.948573,9.216 C186.748573,9.06666667 187.356573,8.712 187.772573,8.152 C188.188573,7.592 188.396573,6.912 188.396573,6.112 C188.396573,5.45066667 188.281906,4.89866667 188.052573,4.456 C187.823239,4.01333333 187.513906,3.66133333 187.124573,3.4 C186.735239,3.13866667 186.281906,2.952 185.764573,2.84 C185.247239,2.728 184.700573,2.672 184.124573,2.672 L184.124573,2.672 L179.740573,2.672 L179.740573,14 L182.236573,14 Z M183.708573,7.36 L182.236573,7.36 L182.236573,4.784 L183.868573,4.784 C184.092573,4.784 184.321906,4.8 184.556573,4.832 C184.791239,4.864 184.999239,4.92533333 185.180573,5.016 C185.361906,5.10666667 185.511239,5.23733333 185.628573,5.408 C185.745906,5.57866667 185.804573,5.808 185.804573,6.096 C185.804573,6.40533333 185.737906,6.64533333 185.604573,6.816 C185.471239,6.98666667 185.303239,7.112 185.100573,7.192 C184.897906,7.272 184.671239,7.32 184.420573,7.336 C184.169906,7.352 183.932573,7.36 183.708573,7.36 L183.708573,7.36 Z M194.673144,14 L194.673144,4.88 L197.905144,4.88 L197.905144,2.672 L188.945144,2.672 L188.945144,4.88 L192.177144,4.88 L192.177144,14 L194.673144,14 Z M202.293716,14.288 C202.880383,14.288 203.437716,14.2133333 203.965716,14.064 C204.493716,13.9146667 204.957716,13.6853333 205.357716,13.376 C205.757716,13.0666667 206.075049,12.6773333 206.309716,12.208 C206.544383,11.7386667 206.661716,11.1893333 206.661716,10.56 C206.661716,9.89866667 206.533716,9.37066667 206.277716,8.976 C206.021716,8.58133333 205.699049,8.26666667 205.309716,8.032 C204.920383,7.79733333 204.501716,7.616 204.053716,7.488 C203.605716,7.36 203.187049,7.232 202.797716,7.104 C202.408383,6.976 202.085716,6.82133333 201.829716,6.64 C201.573716,6.45866667 201.445716,6.19733333 201.445716,5.856 C201.445716,5.64266667 201.499049,5.46133333 201.605716,5.312 C201.712383,5.16266667 201.851049,5.04266667 202.021716,4.952 C202.192383,4.86133333 202.373716,4.79466667 202.565716,4.752 C202.757716,4.70933333 202.944383,4.688 203.125716,4.688 C203.435049,4.688 203.763049,4.74933333 204.109716,4.872 C204.456383,4.99466667 204.731049,5.184 204.933716,5.44 L204.933716,5.44 L206.645716,3.568 C206.165716,3.14133333 205.627049,2.83733333 205.029716,2.656 C204.432383,2.47466667 203.813716,2.384 203.173716,2.384 C202.619049,2.384 202.080383,2.46133333 201.557716,2.616 C201.035049,2.77066667 200.573716,3.00266667 200.173716,3.312 C199.773716,3.62133333 199.453716,4.00533333 199.213716,4.464 C198.973716,4.92266667 198.853716,5.456 198.853716,6.064 C198.853716,6.69333333 198.984383,7.2 199.245716,7.584 C199.507049,7.968 199.835049,8.27733333 200.229716,8.512 C200.624383,8.74666667 201.051049,8.93333333 201.509716,9.072 C201.968383,9.21066667 202.395049,9.34933333 202.789716,9.488 C203.184383,9.62666667 203.512383,9.79466667 203.773716,9.992 C204.035049,10.1893333 204.165716,10.4586667 204.165716,10.8 C204.165716,11.0026667 204.115049,11.1786667 204.013716,11.328 C203.912383,11.4773333 203.779049,11.6 203.613716,11.696 C203.448383,11.792 203.261716,11.864 203.053716,11.912 C202.845716,11.96 202.640383,11.984 202.437716,11.984 C202.021716,11.984 201.619049,11.8906667 201.229716,11.704 C200.840383,11.5173333 200.517716,11.2533333 200.261716,10.912 L200.261716,10.912 L198.485716,12.864 C199.029716,13.3653333 199.616383,13.728 200.245716,13.952 C200.875049,14.176 201.557716,14.288 202.293716,14.288 Z M43.992,31 C44.8986667,31 45.624,30.872 46.168,30.616 C46.712,30.36 47.128,30.0586667 47.416,29.712 C47.704,29.3653333 47.8933333,29.016 47.984,28.664 C48.0746667,28.312 48.12,28.0453333 48.12,27.864 C48.12,27.032 47.8933333,26.368 47.44,25.872 C46.9866667,25.376 46.36,25.096 45.56,25.032 L45.56,25.032 L45.56,25 C46.2,24.8506667 46.6933333,24.5546667 47.04,24.112 C47.3866667,23.6693333 47.56,23.1386667 47.56,22.52 C47.56,21.9866667 47.4586667,21.5386667 47.256,21.176 C47.0533333,20.8133333 46.7813333,20.52 46.44,20.296 C46.0986667,20.072 45.7093333,19.912 45.272,19.816 C44.8346667,19.72 44.3813333,19.672 43.912,19.672 L43.912,19.672 L40.536,19.672 L40.536,31 L43.992,31 Z M44.008,24.632 L41.688,24.632 L41.688,20.728 L43.896,20.728 C44.44,20.728 44.872,20.8053333 45.192,20.96 C45.512,21.1146667 45.7546667,21.2986667 45.92,21.512 C46.0853333,21.7253333 46.192,21.9386667 46.24,22.152 C46.288,22.3653333 46.312,22.5306667 46.312,22.648 C46.312,23.0106667 46.2426667,23.3173333 46.104,23.568 C45.9653333,23.8186667 45.7866667,24.024 45.568,24.184 C45.3493333,24.344 45.104,24.4586667 44.832,24.528 C44.56,24.5973333 44.2853333,24.632 44.008,24.632 L44.008,24.632 Z M43.896,29.944 L41.688,29.944 L41.688,25.592 L44.04,25.592 C44.968,25.592 45.672,25.7733333 46.152,26.136 C46.632,26.4986667 46.872,27.0533333 46.872,27.8 C46.872,28.1733333 46.7946667,28.4933333 46.64,28.76 C46.4853333,29.0266667 46.2746667,29.248 46.008,29.424 C45.7413333,29.6 45.4266667,29.7306667 45.064,29.816 C44.7013333,29.9013333 44.312,29.944 43.896,29.944 L43.896,29.944 Z M57.9965715,31 L57.9965715,29.944 L51.9325715,29.944 L51.9325715,25.64 L57.4205715,25.64 L57.4205715,24.584 L51.9325715,24.584 L51.9325715,20.728 L57.8045715,20.728 L57.8045715,19.672 L50.7805715,19.672 L50.7805715,31 L57.9965715,31 Z M64.065143,31 L64.065143,20.728 L67.857143,20.728 L67.857143,19.672 L59.121143,19.672 L59.121143,20.728 L62.913143,20.728 L62.913143,31 L64.065143,31 Z M73.4137146,31 L73.4137146,20.728 L77.2057146,20.728 L77.2057146,19.672 L68.4697146,19.672 L68.4697146,20.728 L72.2617146,20.728 L72.2617146,31 L73.4137146,31 Z M80.2822861,31 L80.2822861,19.672 L79.1302861,19.672 L79.1302861,31 L80.2822861,31 Z M84.6708576,31 L84.6708576,21.304 L84.7028576,21.304 L91.4548576,31 L92.8948576,31 L92.8948576,19.672 L91.7428576,19.672 L91.7428576,29.272 L91.7108576,29.272 L84.9588576,19.672 L83.5188576,19.672 L83.5188576,31 L84.6708576,31 Z M101.267429,31.288 C101.960762,31.288 102.688762,31.1893333 103.451429,30.992 C104.214096,30.7946667 104.915429,30.5093333 105.555429,30.136 L105.555429,30.136 L105.555429,24.584 L101.699429,24.584 L101.699429,25.64 L104.403429,25.64 L104.403429,29.432 C103.976762,29.6773333 103.494096,29.872 102.955429,30.016 C102.416762,30.16 101.854096,30.232 101.267429,30.232 C100.542096,30.232 99.8914291,30.0986667 99.3154291,29.832 C98.7394291,29.5653333 98.2514291,29.208 97.8514291,28.76 C97.4514291,28.312 97.1447625,27.792 96.9314291,27.2 C96.7180958,26.608 96.6114291,25.9866667 96.6114291,25.336 C96.6114291,24.6853333 96.7180958,24.064 96.9314291,23.472 C97.1447625,22.88 97.4514291,22.36 97.8514291,21.912 C98.2514291,21.464 98.7394291,21.1066667 99.3154291,20.84 C99.8914291,20.5733333 100.542096,20.44 101.267429,20.44 C101.971429,20.44 102.590096,20.5573333 103.123429,20.792 C103.656762,21.0266667 104.115429,21.3466667 104.499429,21.752 L104.499429,21.752 L105.363429,20.904 C104.851429,20.392 104.267429,20.0106667 103.611429,19.76 C102.955429,19.5093333 102.174096,19.384 101.267429,19.384 C100.424762,19.384 99.6434291,19.5333333 98.9234291,19.832 C98.2034291,20.1306667 97.5794291,20.544 97.0514291,21.072 C96.5234291,21.6 96.1100958,22.2266667 95.8114291,22.952 C95.5127625,23.6773333 95.3634291,24.472 95.3634291,25.336 C95.3634291,26.2 95.5127625,26.9946667 95.8114291,27.72 C96.1100958,28.4453333 96.5234291,29.072 97.0514291,29.6 C97.5794291,30.128 98.2034291,30.5413333 98.9234291,30.84 C99.6434291,31.1386667 100.424762,31.288 101.267429,31.288 Z M116.188572,31.288 C116.636572,31.288 117.081905,31.2133333 117.524572,31.064 C117.967239,30.9146667 118.367239,30.7013333 118.724572,30.424 C119.081905,30.1466667 119.369905,29.8026667 119.588572,29.392 C119.807239,28.9813333 119.916572,28.52 119.916572,28.008 C119.916572,27.3253333 119.772572,26.7866667 119.484572,26.392 C119.196572,25.9973333 118.839239,25.68 118.412572,25.44 C117.985905,25.2 117.519239,25.008 117.012572,24.864 C116.505905,24.72 116.039239,24.5573333 115.612572,24.376 C115.185905,24.1946667 114.828572,23.9626667 114.540572,23.68 C114.252572,23.3973333 114.108572,23 114.108572,22.488 C114.108572,22.136 114.177905,21.8293333 114.316572,21.568 C114.455239,21.3066667 114.639239,21.0933333 114.868572,20.928 C115.097905,20.7626667 115.356572,20.64 115.644572,20.56 C115.932572,20.48 116.225905,20.44 116.524572,20.44 C117.484572,20.44 118.215239,20.808 118.716572,21.544 L118.716572,21.544 L119.724572,20.76 C119.276572,20.248 118.791239,19.8906667 118.268572,19.688 C117.745905,19.4853333 117.164572,19.384 116.524572,19.384 C116.065905,19.384 115.617905,19.448 115.180572,19.576 C114.743239,19.704 114.351239,19.9013333 114.004572,20.168 C113.657905,20.4346667 113.380572,20.7706667 113.172572,21.176 C112.964572,21.5813333 112.860572,22.056 112.860572,22.6 C112.860572,23.1226667 112.943239,23.5573333 113.108572,23.904 C113.273905,24.2506667 113.492572,24.5386667 113.764572,24.768 C114.036572,24.9973333 114.345905,25.1866667 114.692572,25.336 C115.039239,25.4853333 115.396572,25.6186667 115.764572,25.736 C116.132572,25.8533333 116.489905,25.9706667 116.836572,26.088 C117.183239,26.2053333 117.492572,26.352 117.764572,26.528 C118.036572,26.704 118.255239,26.9226667 118.420572,27.184 C118.585905,27.4453333 118.668572,27.7733333 118.668572,28.168 C118.668572,28.4986667 118.593905,28.792 118.444572,29.048 C118.295239,29.304 118.105905,29.52 117.876572,29.696 C117.647239,29.872 117.388572,30.0053333 117.100572,30.096 C116.812572,30.1866667 116.524572,30.232 116.236572,30.232 C115.639239,30.232 115.121905,30.1066667 114.684572,29.856 C114.247239,29.6053333 113.905905,29.272 113.660572,28.856 L113.660572,28.856 L112.620572,29.608 C113.057905,30.2053333 113.588572,30.6346667 114.212572,30.896 C114.836572,31.1573333 115.495239,31.288 116.188572,31.288 Z M123.569144,31 L123.569144,19.672 L122.417144,19.672 L122.417144,31 L123.569144,31 Z M130.437715,31 L130.437715,20.728 L134.229715,20.728 L134.229715,19.672 L125.493715,19.672 L125.493715,20.728 L129.285715,20.728 L129.285715,31 L130.437715,31 Z M143.370287,31 L143.370287,29.944 L137.306287,29.944 L137.306287,25.64 L142.794287,25.64 L142.794287,24.584 L137.306287,24.584 L137.306287,20.728 L143.178287,20.728 L143.178287,19.672 L136.154287,19.672 L136.154287,31 L143.370287,31 Z M148.638858,31.288 C149.086858,31.288 149.532192,31.2133333 149.974858,31.064 C150.417525,30.9146667 150.817525,30.7013333 151.174858,30.424 C151.532192,30.1466667 151.820192,29.8026667 152.038858,29.392 C152.257525,28.9813333 152.366858,28.52 152.366858,28.008 C152.366858,27.3253333 152.222858,26.7866667 151.934858,26.392 C151.646858,25.9973333 151.289525,25.68 150.862858,25.44 C150.436192,25.2 149.969525,25.008 149.462858,24.864 C148.956192,24.72 148.489525,24.5573333 148.062858,24.376 C147.636192,24.1946667 147.278858,23.9626667 146.990858,23.68 C146.702858,23.3973333 146.558858,23 146.558858,22.488 C146.558858,22.136 146.628192,21.8293333 146.766858,21.568 C146.905525,21.3066667 147.089525,21.0933333 147.318858,20.928 C147.548192,20.7626667 147.806858,20.64 148.094858,20.56 C148.382858,20.48 148.676192,20.44 148.974858,20.44 C149.934858,20.44 150.665525,20.808 151.166858,21.544 L151.166858,21.544 L152.174858,20.76 C151.726858,20.248 151.241525,19.8906667 150.718858,19.688 C150.196192,19.4853333 149.614858,19.384 148.974858,19.384 C148.516192,19.384 148.068192,19.448 147.630858,19.576 C147.193525,19.704 146.801525,19.9013333 146.454858,20.168 C146.108192,20.4346667 145.830858,20.7706667 145.622858,21.176 C145.414858,21.5813333 145.310858,22.056 145.310858,22.6 C145.310858,23.1226667 145.393525,23.5573333 145.558858,23.904 C145.724192,24.2506667 145.942858,24.5386667 146.214858,24.768 C146.486858,24.9973333 146.796192,25.1866667 147.142858,25.336 C147.489525,25.4853333 147.846858,25.6186667 148.214858,25.736 C148.582858,25.8533333 148.940192,25.9706667 149.286858,26.088 C149.633525,26.2053333 149.942858,26.352 150.214858,26.528 C150.486858,26.704 150.705525,26.9226667 150.870858,27.184 C151.036192,27.4453333 151.118858,27.7733333 151.118858,28.168 C151.118858,28.4986667 151.044192,28.792 150.894858,29.048 C150.745525,29.304 150.556192,29.52 150.326858,29.696 C150.097525,29.872 149.838858,30.0053333 149.550858,30.096 C149.262858,30.1866667 148.974858,30.232 148.686858,30.232 C148.089525,30.232 147.572192,30.1066667 147.134858,29.856 C146.697525,29.6053333 146.356192,29.272 146.110858,28.856 L146.110858,28.856 L145.070858,29.608 C145.508192,30.2053333 146.038858,30.6346667 146.662858,30.896 C147.286858,31.1573333 147.945525,31.288 148.638858,31.288 Z" id="TOP10BESTSPORTSBETTINGSITES" fill="#FFFFFF"></path>
            <g id="poker-2">
                <g id="poker">
                    <path d="M32.9356784,16.5 C32.9365088,17.4849727 32.8483158,18.4679473 32.6721871,19.437 C32.2514854,21.7598262 31.3389357,23.9653477 29.9959064,25.905 C28.8692105,27.5209687 27.4673216,28.9255312 25.8545029,30.0544922 C23.9185029,31.4000156 21.717345,32.3143477 19.3991111,32.736 C17.460731,33.0879785 15.4749415,33.0879785 13.5365614,32.736 C11.2183275,32.3143477 9.01716959,31.3999512 7.08116959,30.0544922 C5.46835088,28.9255957 4.06652632,27.5209687 2.93976608,25.905 C-0.97951462,20.2498828 -0.97951462,12.7501172 2.93976608,7.095 C4.06646199,5.47903125 5.46835088,4.07446875 7.08116959,2.94550781 C9.01704094,1.59979102 11.2182632,0.685394531 13.5365614,0.264 C15.4749415,-0.0879785156 17.460731,-0.0879785156 19.3991111,0.264 C21.7174094,0.685394531 23.9186316,1.59979102 25.8545029,2.94550781 C27.4673216,4.0744043 28.8691462,5.47903125 29.9959064,7.095 C31.339,9.03465234 32.251614,11.2401738 32.6721871,13.563 C32.8483158,14.5320527 32.9365088,15.5150273 32.9356784,16.5 Z" id="Path" fill="#ECF0F1"></path>
                    <g id="Group" fill="#E64C3C">
                        <path d="M20.1191287,0.409664063 L18.4893918,5.30275195 C17.152538,5.06002148 15.7830702,5.06002148 14.4462807,5.30275195 L12.8165439,0.409664063 C15.2202047,-0.136576172 17.7154678,-0.136576172 20.1191287,0.409664063 Z" id="Path"></path>
                        <path d="M9.99423977,7.15191211 C8.88201754,7.93063477 7.91517544,8.89936523 7.13790643,10.0138242 L2.5325731,7.70949609 C3.84543275,5.6203125 5.60935673,3.85294336 7.69446784,2.53758398 L9.99423977,7.15191211 Z" id="Path"></path>
                        <path d="M5.11069006,16.5 C5.11023977,17.1792715 5.17102924,17.8571895 5.2924152,18.5255039 L0.408865497,20.1584238 C-0.136245614,17.7500684 -0.136245614,15.2499316 0.408865497,12.8415117 L5.2924152,14.4744316 C5.17102924,15.1428105 5.11023977,15.8207285 5.11069006,16.5 Z" id="Path"></path>
                        <path d="M9.99423977,25.8480879 L7.69440351,30.462416 C5.60935673,29.1470566 3.84543275,27.3796875 2.53263743,25.2905039 L7.13797076,22.9861758 C7.91517544,24.1006348 8.88201754,25.0693652 9.99423977,25.8480879 Z" id="Path"></path>
                        <path d="M20.1191287,32.5903359 C17.7154678,33.1365117 15.2202047,33.1365117 12.8164795,32.5903359 L14.4462164,27.697248 C15.7830702,27.9399785 17.152538,27.9399785 18.4893275,27.697248 L20.1191287,32.5903359 Z" id="Path"></path>
                        <path d="M30.4030351,25.2905039 C29.0902398,27.3796875 27.3263158,29.1470566 25.2412047,30.462416 L22.9413684,25.8480879 C24.0535906,25.0693652 25.0204327,24.1006348 25.7977018,22.9861758 L30.4030351,25.2905039 Z" id="Path"></path>
                        <path d="M32.9356731,16.5 C32.9359942,17.7309258 32.798848,18.9580488 32.526807,20.1584238 L27.6432573,18.5255039 C27.8855146,17.1860391 27.8855146,15.8138965 27.6432573,14.4744961 L32.526807,12.8415762 C32.798848,14.0419512 32.9359942,15.2690742 32.9356731,16.5 Z" id="Path"></path>
                        <path d="M27.6432573,14.4744961 C27.8855146,15.8139609 27.8855146,17.1861035 27.6432573,18.5255039 C27.353076,20.1274219 26.7238246,21.6484512 25.7977018,22.9861758 C25.0204971,24.1005703 24.053655,25.0693008 22.9413684,25.8480879 C21.6061871,26.7759551 20.0881228,27.4065 18.4893918,27.697248 C17.152538,27.9399785 15.7830702,27.9399785 14.4462807,27.697248 C12.8474854,27.4065 11.3294211,26.7760195 9.99430409,25.8480879 C8.88208187,25.0693652 7.91523977,24.1006348 7.13797076,22.9861758 C4.43538012,19.0859883 4.43538012,13.9139473 7.13797076,10.0137598 C7.91517544,8.89936523 8.88201754,7.93063477 9.99430409,7.15184766 C11.3294854,6.22398047 12.8475497,5.59343555 14.4462807,5.3026875 C15.7831345,5.05995703 17.1526023,5.05995703 18.4893918,5.3026875 C20.0881871,5.59343555 21.6062515,6.22391602 22.9413684,7.15184766 L25.2412047,2.53751953 C27.3263158,3.85287891 29.0902398,5.62024805 30.4030351,7.70943164 L25.7977018,10.0137598 C26.7237602,11.3515488 27.353076,12.8725781 27.6432573,14.4744961 Z" id="Path"></path>
                    </g>
                    <path d="M27.8249849,16.5 C27.8254327,17.1792715 27.7646433,17.8571895 27.6432573,18.5255039 C27.353076,20.1274219 26.7238246,21.6484512 25.7977018,22.9861758 C25.0204971,24.1005703 24.053655,25.0693008 22.9413684,25.8480879 C21.6061871,26.7759551 20.0881228,27.4065 18.4893918,27.697248 C17.152538,27.9399785 15.7830702,27.9399785 14.4462807,27.697248 C12.8474854,27.4065 11.3294211,26.7760195 9.99430409,25.8480879 C8.88208187,25.0693652 7.91523977,24.1006348 7.13797076,22.9861758 C4.43538012,19.0859883 4.43538012,13.9139473 7.13797076,10.0137598 C7.91517544,8.89936523 8.88201754,7.93063477 9.99430409,7.15184766 C11.3294854,6.22398047 12.8475497,5.59343555 14.4462807,5.3026875 C15.7831345,5.05995703 17.1526023,5.05995703 18.4893918,5.3026875 C20.0881871,5.59343555 21.6062515,6.22391602 22.9413684,7.15184766 C24.0535906,7.93057031 25.0204327,8.89930078 25.7977018,10.0137598 C26.7237602,11.3515488 27.353076,12.8725781 27.6432573,14.4744316 C27.7646433,15.1428105 27.8254327,15.8207285 27.8249849,16.5 Z" id="Path" fill="#C03A2B"></path>
                    <g id="Group" transform="translate(6.754386, 6.767578)" fill="#E64C3C">
                        <path d="M0.62777193,10.3014141 C0.314175439,10.3014141 0.0598888889,10.0466953 0.0598888889,9.73242187 C0.0658070175,4.39299609 4.38436842,0.0659355469 9.71345029,0.0600058594 C10.0270468,0.0600058594 10.2813333,0.314724609 10.2813333,0.628998047 C10.2813333,0.943271484 10.0271111,1.19799023 9.71345029,1.19799023 C5.01136842,1.20327539 1.20092982,5.02115625 1.19559064,9.73242187 C1.19559064,10.0466309 0.941368421,10.3014141 0.62777193,10.3014141 Z" id="Path"></path>
                        <path d="M9.71345029,19.4048379 C9.3998538,19.4048379 9.14556725,19.1501191 9.14556725,18.8358457 C9.14556725,18.5215723 9.39978947,18.2668535 9.71345029,18.2668535 C14.4155322,18.2615039 18.2259708,14.443623 18.2313099,9.73235742 C18.2313099,9.41814844 18.4855322,9.16336523 18.799193,9.16336523 C19.1127895,9.16336523 19.367076,9.41808398 19.367076,9.73235742 C19.3610292,15.0718477 15.0424678,19.3989082 9.71345029,19.4048379 Z" id="Path"></path>
                    </g>
                    <g id="Group" transform="translate(1.672515, 1.675781)" fill="#C03A2B">
                        <path d="M15.3632047,0.0311308594 L14.2275029,0.0311308594 C13.9139064,0.0311308594 13.6596199,0.285849609 13.6596199,0.600123047 C13.6596199,0.914396484 13.9138421,1.16911523 14.2275029,1.16911523 L15.3632047,1.16911523 C15.6768012,1.16911523 15.9310877,0.914396484 15.9310877,0.600123047 C15.9310877,0.285849609 15.6768012,0.0311308594 15.3632047,0.0311308594 Z" id="Path"></path>
                        <path d="M4.75676023,3.96154688 L3.95382456,4.76605078 C3.80619298,4.90887891 3.7470117,5.12047852 3.7989883,5.31938086 C3.85096491,5.5182832 4.00599415,5.67367969 4.2045731,5.72575781 C4.40308772,5.77783594 4.61427485,5.71853906 4.75682456,5.57061914 L5.55976023,4.76611523 C5.70739181,4.62328711 5.7665731,4.4116875 5.71459649,4.21278516 C5.66261988,4.01388281 5.50759064,3.85848633 5.3090117,3.8064082 C5.11043275,3.75433008 4.89930994,3.81362695 4.75676023,3.96154688 Z" id="Path"></path>
                        <path d="M0.598888889,13.6862988 C0.285292398,13.6862988 0.031005848,13.9410176 0.031005848,14.255291 L0.031005848,15.3932109 C0.031005848,15.7074199 0.28522807,15.9622031 0.598888889,15.9622031 C0.912549708,15.9622031 1.16677193,15.7074844 1.16677193,15.3932109 L1.16677193,14.255291 C1.16677193,13.9410176 0.912549708,13.6862988 0.598888889,13.6862988 Z" id="Path"></path>
                        <path d="M4.75676023,24.0778828 C4.53392982,23.8622871 4.17974269,23.8653164 3.9607076,24.0848437 C3.74167251,24.3043066 3.7385848,24.6591855 3.95376023,24.8824512 L4.75669591,25.6869551 C4.97952632,25.9025508 5.33371345,25.8995215 5.55274854,25.6799941 C5.77178363,25.4605313 5.77487135,25.1056523 5.55969591,24.8823867 L4.75676023,24.0778828 Z" id="Path"></path>
                        <path d="M15.3632047,28.4793867 L14.2275029,28.4793867 C13.9139064,28.4793867 13.6596199,28.7341055 13.6596199,29.0483789 C13.6596199,29.3626523 13.9138421,29.6173711 14.2275029,29.6173711 L15.3632047,29.6173711 C15.6768012,29.6173711 15.9310877,29.3626523 15.9310877,29.0483789 C15.9310877,28.7341055 15.6768012,28.4793867 15.3632047,28.4793867 Z" id="Path"></path>
                        <path d="M24.833883,24.0778828 L24.0309474,24.8823867 C23.8833158,25.0252148 23.8241345,25.23675 23.8761111,25.4357168 C23.9280877,25.6346191 24.083117,25.7900156 24.2816959,25.8420937 C24.4802749,25.8941719 24.6913333,25.834875 24.8339474,25.6869551 L25.636883,24.8824512 C25.8520585,24.6591855 25.8490351,24.3043066 25.6299357,24.0848437 C25.4109006,23.8653164 25.0567135,23.8622227 24.833883,24.0778828 Z" id="Path"></path>
                        <path d="M28.9917544,13.6862988 C28.6781579,13.6862988 28.4238713,13.9410176 28.4238713,14.255291 L28.4238713,15.3932109 C28.4238713,15.7074199 28.6780936,15.9622031 28.9917544,15.9622031 C29.3054152,15.9622031 29.5596374,15.7074844 29.5596374,15.3932109 L29.5596374,14.255291 C29.5595731,13.9410176 29.3053509,13.6862988 28.9917544,13.6862988 Z" id="Path"></path>
                        <path d="M24.833883,3.96154687 C24.6110526,3.74595117 24.2568655,3.74898047 24.0378304,3.96850781 C23.8187953,4.1879707 23.8157076,4.54284961 24.030883,4.76611523 L24.8338187,5.57061914 C25.0566491,5.78621484 25.4108363,5.78318555 25.6298713,5.5636582 C25.8489064,5.34419531 25.8519942,4.98931641 25.6368187,4.76605078 L24.833883,3.96154687 Z" id="Path"></path>
                    </g>
                    <path d="M17.603538,18.7946602 L17.603538,20.3564883 C17.603538,21.0517441 17.7296199,22.1896641 18.9914035,22.1896641 L13.944269,22.1896641 C15.2060526,22.1896641 15.3321345,21.0517441 15.3321345,20.3564883 L15.3321345,18.7946602 C14.3196842,19.2932051 13.1129649,19.1757715 12.2151462,18.4914082 C11.1549649,17.5748203 11.1549649,15.7415801 12.2151462,13.9078242 C12.9596082,12.5298164 14.8715497,11.1579961 16.4678363,10.2414082 C18.0640585,11.1579961 19.9760643,12.5298164 20.7205263,13.9078242 C21.7807076,15.7415801 21.7807076,17.5748203 20.7205263,18.4914082 C19.8227076,19.1757715 18.6159883,19.2931406 17.603538,18.7946602 Z" id="Path" fill="#ECF0F1"></path>
                </g>
            </g>
        </g>
    </g>
</svg>